<?xml version="1.0" encoding="UTF-8" standalone="no"?>
<svg
   width="1117.81"
   height="1430"
   version="1.1"
   id="svg1111"
   sodipodi:docname="X-Ray Tracing Algorithm Flow Chart.svg"
   inkscape:version="1.1.2 (0a00cf5339, 2022-02-04)"
   xmlns:inkscape="http://www.inkscape.org/namespaces/inkscape"
   xmlns:sodipodi="http://sodipodi.sourceforge.net/DTD/sodipodi-0.dtd"
   xmlns:xlink="http://www.w3.org/1999/xlink"
   xmlns="http://www.w3.org/2000/svg"
   xmlns:svg="http://www.w3.org/2000/svg"
   xmlns:lucid="lucid">
  <defs
     id="defs1115" />
  <sodipodi:namedview
     id="namedview1113"
     pagecolor="#ffffff"
     bordercolor="#666666"
     borderopacity="1.0"
     inkscape:pageshadow="2"
     inkscape:pageopacity="0.0"
     inkscape:pagecheckerboard="0"
     showgrid="false"
     inkscape:zoom="0.38668357"
     inkscape:cx="795.22386"
     inkscape:cy="1017.6279"
     inkscape:window-width="1920"
     inkscape:window-height="954"
     inkscape:window-x="0"
     inkscape:window-y="27"
     inkscape:window-maximized="1"
     inkscape:current-layer="g1109" />
  <g
     transform="translate(-240 -60)"
     lucid:page-tab-id="0_0"
     id="g1109">
    <path
       d="M0 0h1760v2720H0z"
       fill="#fff"
       id="path2" />
    <path
       d="M580 86a6 6 0 0 1 6-6h248a6 6 0 0 1 6 6v146.67a6 6 0 0 1-6 6H586a6 6 0 0 1-6-6z"
       stroke="#3a414a"
       fill="#fff"
       id="path4" />
    <use
       xlink:href="#a"
       transform="matrix(1,0,0,1,592,92) translate(6.333333333333343 47.30902777777778)"
       id="use6" />
    <use
       xlink:href="#b"
       transform="matrix(1,0,0,1,592,92) translate(52.012345679012356 47.30902777777778)"
       id="use8" />
    <use
       xlink:href="#c"
       transform="matrix(1,0,0,1,592,92) translate(128.49382716049382 47.30902777777778)"
       id="use10" />
    <use
       xlink:href="#d"
       transform="matrix(1,0,0,1,592,92) translate(170.40740740740742 47.30902777777778)"
       id="use12" />
    <use
       xlink:href="#e"
       transform="matrix(1,0,0,1,592,92) translate(15.68518518518519 73.97569444444446)"
       id="use14" />
    <use
       xlink:href="#f"
       transform="matrix(1,0,0,1,592,92) translate(58.89506172839507 73.97569444444446)"
       id="use16" />
    <use
       xlink:href="#g"
       transform="matrix(1,0,0,1,592,92) translate(137.78395061728395 73.97569444444446)"
       id="use18" />
    <use
       xlink:href="#h"
       transform="matrix(1,0,0,1,592,92) translate(79.75925925925927 100.64236111111111)"
       id="use20" />
    <path
       d="M630 405.33a6 6 0 0 1 6-6h148a6 6 0 0 1 6 6v88a6 6 0 0 1-6 6H636a6 6 0 0 1-6-6z"
       stroke="#3a414a"
       fill="#fff"
       id="path22" />
    <use
       xlink:href="#i"
       transform="matrix(1,0,0,1,642,411.33333333333337) translate(4.512345679012348 17.77777777777778)"
       id="use24" />
    <use
       xlink:href="#j"
       transform="matrix(1,0,0,1,642,411.33333333333337) translate(100.68518518518519 17.77777777777778)"
       id="use26" />
    <use
       xlink:href="#k"
       transform="matrix(1,0,0,1,642,411.33333333333337) translate(5.7777777777777715 44.44444444444444)"
       id="use28" />
    <use
       xlink:href="#l"
       transform="matrix(1,0,0,1,642,411.33333333333337) translate(56.2716049382716 44.44444444444444)"
       id="use30" />
    <use
       xlink:href="#m"
       transform="matrix(1,0,0,1,642,411.33333333333337) translate(32.876543209876544 71.11111111111111)"
       id="use32" />
    <use
       xlink:href="#n"
       transform="matrix(1,0,0,1,642,411.33333333333337) translate(57.5679012345679 71.11111111111111)"
       id="use34" />
    <path
       d="M421 159.33h142.12"
       stroke="#3a414a"
       fill="none"
       id="path36" />
    <path
       d="M421 159.83h-.53l.03-.5-.02-.5h.53z"
       stroke="#3a414a"
       stroke-width=".05"
       fill="#3a414a"
       id="path38" />
    <path
       d="M577.88 159.33l-14.26 4.64v-9.27z"
       stroke="#3a414a"
       fill="#3a414a"
       id="path40" />
    <path
       d="M704.94 1041.23a9.4 9.4 0 0 1 10.12 0l84.88 54.2a3.83 3.83 0 0 1 0 6.47l-84.88 54.2a9.4 9.4 0 0 1-10.12 0l-84.88-54.2a3.83 3.83 0 0 1 0-6.46z"
       stroke="#3a414a"
       fill="#fff"
       id="path42" />
    <use
       xlink:href="#o"
       transform="matrix(1,0,0,1,620,1043) translate(64.10993827160493 31.77777777777778)"
       id="use44" />
    <use
       xlink:href="#p"
       transform="matrix(1,0,0,1,620,1043) translate(29.603765432098765 58.44444444444445)"
       id="use46" />
    <use
       xlink:href="#q"
       transform="matrix(1,0,0,1,620,1043) translate(66.57907407407407 58.44444444444445)"
       id="use48" />
    <use
       xlink:href="#r"
       transform="matrix(1,0,0,1,620,1043) translate(54.233395061728395 85.11111111111111)"
       id="use50" />
    <path
       d="M565 732.67a6 6 0 0 1 6-6h278a6 6 0 0 1 6 6V814a6 6 0 0 1-6 6H571a6 6 0 0 1-6-6z"
       stroke="#3a414a"
       fill="#fff"
       id="path52" />
    <use
       xlink:href="#s"
       transform="matrix(1,0,0,1,577,738.6666666666667) translate(11.611111111111114 26.52777777777778)"
       id="use54" />
    <use
       xlink:href="#t"
       transform="matrix(1,0,0,1,577,738.6666666666667) translate(80.68518518518519 26.52777777777778)"
       id="use56" />
    <use
       xlink:href="#u"
       transform="matrix(1,0,0,1,577,738.6666666666667) translate(197.72222222222223 26.52777777777778)"
       id="use58" />
    <use
       xlink:href="#v"
       transform="matrix(1,0,0,1,577,738.6666666666667) translate(39.296296296296305 53.19444444444445)"
       id="use60" />
    <use
       xlink:href="#w"
       transform="matrix(1,0,0,1,577,738.6666666666667) translate(128.12345679012347 53.19444444444445)"
       id="use62" />
    <use
       xlink:href="#x"
       transform="matrix(1,0,0,1,577,738.6666666666667) translate(156.3950617283951 53.19444444444445)"
       id="use64" />
    <path
       d="M585 1206.67a6 6 0 0 1 6-6h238a6 6 0 0 1 6 6v88a6 6 0 0 1-6 6H591a6 6 0 0 1-6-6z"
       stroke="#3a414a"
       fill="#fff"
       id="path66" />
    <use
       xlink:href="#i"
       transform="matrix(1,0,0,1,597,1212.666666666667) translate(5.098765432098759 29.80902777777778)"
       id="use68" />
    <use
       xlink:href="#y"
       transform="matrix(1,0,0,1,597,1212.666666666667) translate(101.2716049382716 29.80902777777778)"
       id="use70" />
    <use
       xlink:href="#j"
       transform="matrix(1,0,0,1,597,1212.666666666667) translate(190.09876543209876 29.80902777777778)"
       id="use72" />
    <use
       xlink:href="#z"
       transform="matrix(1,0,0,1,597,1212.666666666667) translate(6.950617283950635 56.47569444444445)"
       id="use74" />
    <use
       xlink:href="#A"
       transform="matrix(1,0,0,1,597,1212.666666666667) translate(78.4320987654321 56.47569444444445)"
       id="use76" />
    <use
       xlink:href="#B"
       transform="matrix(1,0,0,1,597,1212.666666666667) translate(159.85185185185185 56.47569444444445)"
       id="use78" />
    <path
       d="M710 1158.58v25.2"
       stroke="#3a414a"
       fill="none"
       id="path80" />
    <path
       d="M710 1158.08l.5-.03v.55h-1v-.55z"
       stroke="#3a414a"
       stroke-width=".05"
       fill="#3a414a"
       id="path82" />
    <path
       d="M710 1198.55l-4.63-14.27h9.26z"
       stroke="#3a414a"
       fill="#3a414a"
       id="path84" />
    <use
       xlink:href="#C"
       transform="matrix(1,0,0,1,722.6352549156242,1168.4575682782195) translate(0 14.222222222222223)"
       id="use86" />
    <path
       d="m 354.74957,1346.5544 a 6,6 0 0 1 6,-6 h 695.50003 a 6,6 0 0 1 6,6 v 118.67 a 6,6 0 0 1 -6,6 H 360.74957 a 6,6 0 0 1 -6,-6 z"
       stroke="#3a414a"
       fill="#ffffff"
       id="path88" />
    <use
       xlink:href="#i"
       transform="matrix(1,0,0,1,368.25,1351.3333333333333) translate(15.364197530864203 31.15277777777778)"
       id="use90" />
    <use
       xlink:href="#D"
       transform="matrix(1,0,0,1,368.25,1351.3333333333333) translate(111.53703703703704 31.15277777777778)"
       id="use92" />
    <use
       xlink:href="#E"
       transform="matrix(1,0,0,1,368.25,1351.3333333333333) translate(242.15432098765433 31.15277777777778)"
       id="use94" />
    <use
       xlink:href="#F"
       transform="matrix(1,0,0,1,368.25,1351.3333333333333) translate(349.31481481481484 31.15277777777778)"
       id="use96" />
    <use
       xlink:href="#p"
       transform="matrix(1,0,0,1,368.25,1351.3333333333333) translate(374.0061728395062 31.15277777777778)"
       id="use98" />
    <use
       xlink:href="#A"
       transform="matrix(1,0,0,1,368.25,1351.3333333333333) translate(410.98148148148147 31.15277777777778)"
       id="use100" />
    <use
       xlink:href="#G"
       transform="matrix(1,0,0,1,368.25,1351.3333333333333) translate(492.4012345679012 31.15277777777778)"
       id="use102" />
    <use
       xlink:href="#H"
       transform="matrix(1,0,0,1,368.25,1351.3333333333333) translate(563.9444444444445 31.15277777777778)"
       id="use104" />
    <use
       xlink:href="#I"
       transform="matrix(1,0,0,1,368.25,1351.3333333333333) translate(645.179012345679 31.15277777777778)"
       id="use106" />
    <use
       xlink:href="#J"
       transform="matrix(1,0,0,1,368.25,1351.3333333333333) translate(7.8024691358024825 57.81944444444445)"
       id="use108" />
    <use
       xlink:href="#D"
       transform="matrix(1,0,0,1,368.25,1351.3333333333333) translate(55.88888888888891 57.81944444444445)"
       id="use110" />
    <use
       xlink:href="#E"
       transform="matrix(1,0,0,1,368.25,1351.3333333333333) translate(186.5061728395062 57.81944444444445)"
       id="use112" />
    <use
       xlink:href="#K"
       transform="matrix(1,0,0,1,368.25,1351.3333333333333) translate(293.6666666666667 57.81944444444445)"
       id="use114" />
    <use
       xlink:href="#L"
       transform="translate(688.66081,1409.1618)"
       id="use116"
       x="0"
       y="0"
       width="100%"
       height="100%" />
    <use
       xlink:href="#e"
       transform="matrix(1,0,0,1,368.25,1351.3333333333333) translate(365.58024691358025 57.81944444444445)"
       id="use118" />
    <use
       xlink:href="#M"
       transform="matrix(1,0,0,1,368.25,1351.3333333333333) translate(408.7901234567901 57.81944444444445)"
       id="use120" />
    <use
       xlink:href="#D"
       transform="matrix(1,0,0,1,368.25,1351.3333333333333) translate(444.5925925925926 57.81944444444445)"
       id="use122" />
    <use
       xlink:href="#N"
       transform="matrix(1,0,0,1,368.25,1351.3333333333333) translate(575.2098765432099 57.81944444444445)"
       id="use124" />
    <use
       xlink:href="#F"
       transform="matrix(1,0,0,1,368.25,1351.3333333333333) translate(231.59876543209876 84.48611111111111)"
       id="use126" />
    <use
       xlink:href="#p"
       transform="matrix(1,0,0,1,368.25,1351.3333333333333) translate(256.2901234567901 84.48611111111111)"
       id="use128" />
    <use
       xlink:href="#O"
       transform="matrix(1,0,0,1,368.25,1351.3333333333333) translate(293.2654320987654 84.48611111111111)"
       id="use130" />
    <use
       xlink:href="#m"
       transform="matrix(1,0,0,1,368.25,1351.3333333333333) translate(353.6975308641975 84.48611111111111)"
       id="use132" />
    <use
       xlink:href="#P"
       transform="matrix(1,0,0,1,368.25,1351.3333333333333) translate(378.3888888888889 84.48611111111111)"
       id="use134" />
    <path
       d="M705.12 878.82a8.4 8.4 0 0 1 9.76 0l75.24 53.7a4.28 4.28 0 0 1 0 6.97l-75.24 53.68a8.4 8.4 0 0 1-9.76 0l-75.24-53.7a4.28 4.28 0 0 1 0-6.97z"
       stroke="#3a414a"
       fill="#fff"
       id="path136" />
    <use
       xlink:href="#Q"
       transform="matrix(1,0,0,1,630,880.3333333333338) translate(71.36302469135802 24.77777777777778)"
       id="use138" />
    <use
       xlink:href="#R"
       transform="matrix(1,0,0,1,630,880.3333333333338) translate(24.572901234567905 51.78777777777778)"
       id="use140" />
    <use
       xlink:href="#S"
       transform="matrix(1,0,0,1,630,880.3333333333338) translate(43.6161111111111 78.45444444444445)"
       id="use142" />
    <path
       d="M710 821v39.37"
       stroke="#3a414a"
       fill="none"
       id="path144" />
    <path
       d="M710.5 821h-1v-.5h1z"
       stroke="#3a414a"
       stroke-width=".05"
       fill="#3a414a"
       id="path146" />
    <path
       d="M710 875.14l-4.63-14.27h9.26z"
       stroke="#3a414a"
       fill="#3a414a"
       id="path148" />
    <path
       d="M710 995.75v27.12"
       stroke="#3a414a"
       fill="none"
       id="path150" />
    <path
       d="M710 995.25l.5-.03v.54h-1v-.54z"
       stroke="#3a414a"
       stroke-width=".05"
       fill="#3a414a"
       id="path152" />
    <path
       d="M710 1037.63l-4.63-14.26h9.26z"
       stroke="#3a414a"
       fill="#3a414a"
       id="path154" />
    <use
       xlink:href="#T"
       transform="matrix(1,0,0,1,722.6352549148365,1003.3333333333338) translate(0 14.222222222222223)"
       id="use156" />
    <path
       d="M1247.93 878.82a8.4 8.4 0 0 1 9.77 0l75.23 53.7a4.28 4.28 0 0 1 0 6.97l-75.23 53.68a8.4 8.4 0 0 1-9.77 0l-75.23-53.7a4.28 4.28 0 0 1 0-6.97z"
       stroke="#3a414a"
       fill="#fff"
       id="path158" />
    <use
       xlink:href="#U"
       transform="matrix(1,0,0,1,1172.8125312499997,880.3333331680819) translate(65.83833333333334 24.77777777777778)"
       id="use160" />
    <use
       xlink:href="#V"
       transform="matrix(1,0,0,1,1172.8125312499997,880.3333331680819) translate(30.68401234567901 51.44444444444445)"
       id="use162" />
    <use
       xlink:href="#W"
       transform="matrix(1,0,0,1,1172.8125312499997,880.3333331680819) translate(72.65932098765433 51.44444444444445)"
       id="use164" />
    <use
       xlink:href="#X"
       transform="matrix(1,0,0,1,1172.8125312499997,880.3333331680819) translate(39.97413580246913 78.11111111111111)"
       id="use166" />
    <path
       d="M1288.8 1038c13.27 0 24 13.43 24 30s-10.73 30-24 30h-72c-13.24 0-24-13.43-24-30s10.76-30 24-30z"
       stroke="#3a414a"
       fill="#fff"
       id="path168" />
    <g
       id="g172">
      <use
         xlink:href="#Y"
         transform="matrix(1,0,0,1,1197.8125312499997,1043.0000000000005) translate(31.60493827160494 30.27777777777778)"
         id="use170" />
    </g>
    <path
       d="M388 119.33c17.67 0 32 17.9 32 40s-14.33 40-32 40h-96c-17.67 0-32-17.9-32-40s14.33-40 32-40z"
       stroke="#3a414a"
       fill="#fff"
       id="path174" />
    <g
       id="g178">
      <use
         xlink:href="#Z"
         transform="matrix(1,0,0,1,265,124.33333333333334) translate(39.72222222222223 39.65277777777778)"
         id="use176" />
    </g>
    <path
       d="M1252.8 876.25V326.67a6 6 0 0 0-6-6H806.9"
       stroke="#3a414a"
       fill="none"
       id="path180" />
    <path
       d="M1253.3 876.8l-.5-.05-.5.03v-.54h1z"
       stroke="#3a414a"
       stroke-width=".05"
       fill="#3a414a"
       id="path182" />
    <path
       d="M792.12 320.67l14.26-4.64v9.27z"
       stroke="#3a414a"
       fill="#3a414a"
       id="path184" />
    <g
       id="g188">
      <use
         xlink:href="#C"
         transform="matrix(1,0,0,1,1260.8125312492123,824.887700829849) translate(0 14.222222222222223)"
         id="use186" />
    </g>
    <path
       d="M617.3 1098.67h-86.8a6 6 0 0 1-6-6V779.33a6 6 0 0 1 6-6h17.62"
       stroke="#3a414a"
       fill="none"
       id="path190" />
    <path
       d="M617.8 1098.67l.04.5h-.57v-1h.57z"
       stroke="#3a414a"
       stroke-width=".05"
       fill="#3a414a"
       id="path192" />
    <path
       d="M562.88 773.33l-14.26 4.64v-9.27z"
       stroke="#3a414a"
       fill="#3a414a"
       id="path194" />
    <g
       id="g198">
      <use
         xlink:href="#T"
         transform="matrix(1,0,0,1,580.1975308641976,1073.333333254025) translate(0 14.222222222222223)"
         id="use196" />
    </g>
    <path
       d="M710 1301.67v20.78"
       stroke="#3a414a"
       fill="none"
       id="path200" />
    <path
       d="M710.5 1301.68h-1v-.5h1z"
       stroke="#3a414a"
       stroke-width=".05"
       fill="#3a414a"
       id="path202" />
    <path
       d="M710 1337.2l-4.63-14.25h9.26z"
       stroke="#3a414a"
       fill="#3a414a"
       id="path204" />
    <path
       d="M630 546.67a6 6 0 0 1 6-6h148a6 6 0 0 1 6 6v118.66a6 6 0 0 1-6 6H636a6 6 0 0 1-6-6z"
       stroke="#3a414a"
       fill="#fff"
       id="path206" />
    <g
       id="g224">
      <use
         xlink:href="#aa"
         transform="matrix(1,0,0,1,642,552.6666666666666) translate(27.29012345679012 21.12152777777778)"
         id="use208" />
      <use
         xlink:href="#ab"
         transform="matrix(1,0,0,1,642,552.6666666666666) translate(66.7962962962963 21.12152777777778)"
         id="use210" />
      <use
         xlink:href="#ac"
         transform="matrix(1,0,0,1,642,552.6666666666666) translate(5.7777777777777715 47.78819444444444)"
         id="use212" />
      <use
         xlink:href="#E"
         transform="matrix(1,0,0,1,642,552.6666666666666) translate(5.160493827160494 74.45486111111111)"
         id="use214" />
      <use
         xlink:href="#ad"
         transform="matrix(1,0,0,1,642,552.6666666666666) translate(112.32098765432099 74.45486111111111)"
         id="use216" />
      <use
         xlink:href="#p"
         transform="matrix(1,0,0,1,642,552.6666666666666) translate(21.73456790123457 101.12152777777777)"
         id="use218" />
      <use
         xlink:href="#m"
         transform="matrix(1,0,0,1,642,552.6666666666666) translate(58.70987654320988 101.12152777777777)"
         id="use220" />
      <use
         xlink:href="#ae"
         transform="matrix(1,0,0,1,642,552.6666666666666) translate(83.40123456790124 101.12152777777777)"
         id="use222" />
    </g>
    <path
       d="M710 500.33v23.45"
       stroke="#3a414a"
       fill="none"
       id="path226" />
    <path
       d="M710.5 500.35h-1v-.52h1z"
       stroke="#3a414a"
       stroke-width=".05"
       fill="#3a414a"
       id="path228" />
    <path
       d="M710 538.55l-4.63-14.27h9.26z"
       stroke="#3a414a"
       fill="#3a414a"
       id="path230" />
    <path
       d="M710 672.33v37.45"
       stroke="#3a414a"
       fill="none"
       id="path232" />
    <path
       d="M710.5 672.35h-1v-.52h1z"
       stroke="#3a414a"
       stroke-width=".05"
       fill="#3a414a"
       id="path234" />
    <path
       d="M710 724.55l-4.63-14.27h9.26z"
       stroke="#3a414a"
       fill="#3a414a"
       id="path236" />
    <path
       d="M355.25 1404.67h-33.5a6 6 0 0 1-6-6V779.33a6 6 0 0 1 6-6h226.37"
       stroke="#3a414a"
       fill="none"
       id="path238" />
    <path
       d="M355.75 1405.17h-.5v-1h.5z"
       stroke="#3a414a"
       stroke-width=".05"
       fill="#3a414a"
       id="path240" />
    <path
       d="M562.88 773.33l-14.26 4.64v-9.27z"
       stroke="#3a414a"
       fill="#3a414a"
       id="path242" />
    <path
       d="M828.38 897.33a6 6 0 0 1 6-6h275.75a6 6 0 0 1 6 6v77.34a6 6 0 0 1-6 6H834.37a6 6 0 0 1-6-6z"
       stroke="#3a414a"
       fill="#fff"
       id="path244" />
    <g
       id="g266">
      <use
         xlink:href="#aa"
         transform="matrix(1,0,0,1,840.3750374999997,903.3333333333336) translate(21.012345679012327 17.77777777777778)"
         id="use246" />
      <use
         xlink:href="#af"
         transform="matrix(1,0,0,1,840.3750374999997,903.3333333333336) translate(60.518518518518505 17.77777777777778)"
         id="use248" />
      <use
         xlink:href="#F"
         transform="matrix(1,0,0,1,840.3750374999997,903.3333333333336) translate(148.04938271604937 17.77777777777778)"
         id="use250" />
      <use
         xlink:href="#ag"
         transform="matrix(1,0,0,1,840.3750374999997,903.3333333333336) translate(172.74074074074073 17.77777777777778)"
         id="use252" />
      <use
         xlink:href="#ah"
         transform="matrix(1,0,0,1,840.3750374999997,903.3333333333336) translate(224.46913580246914 17.77777777777778)"
         id="use254" />
      <use
         xlink:href="#J"
         transform="matrix(1,0,0,1,840.3750374999997,903.3333333333336) translate(45.734567901234556 44.44444444444444)"
         id="use256" />
      <use
         xlink:href="#ac"
         transform="matrix(1,0,0,1,840.3750374999997,903.3333333333336) translate(93.82098765432099 44.44444444444444)"
         id="use258" />
      <use
         xlink:href="#E"
         transform="matrix(1,0,0,1,840.3750374999997,903.3333333333336) translate(50.672839506172835 71.11111111111111)"
         id="use260" />
      <use
         xlink:href="#F"
         transform="matrix(1,0,0,1,840.3750374999997,903.3333333333336) translate(157.83333333333331 71.11111111111111)"
         id="use262" />
      <use
         xlink:href="#ai"
         transform="matrix(1,0,0,1,840.3750374999997,903.3333333333336) translate(182.52469135802468 71.11111111111111)"
         id="use264" />
    </g>
    <path
       d="M792.9 936h18.6"
       stroke="#3a414a"
       fill="none"
       id="path268" />
    <path
       d="M792.93 936.5h-.56l.04-.5-.03-.5h.56z"
       stroke="#3a414a"
       stroke-width=".05"
       fill="#3a414a"
       id="path270" />
    <path
       d="M826.26 936L812 940.63v-9.26z"
       stroke="#3a414a"
       fill="#3a414a"
       id="path272" />
    <g
       id="g276">
      <use
         xlink:href="#C"
         transform="matrix(1,0,0,1,784.6913580246913,906.0314119162948) translate(0 14.222222222222223)"
         id="use274" />
    </g>
    <path
       d="M1117.13 936h36.9"
       stroke="#3a414a"
       fill="none"
       id="path278" />
    <path
       d="M1117.14 936.5h-.52v-1h.52z"
       stroke="#3a414a"
       stroke-width=".05"
       fill="#3a414a"
       id="path280" />
    <path
       d="M1168.78 936l-14.26 4.63v-9.26z"
       stroke="#3a414a"
       fill="#3a414a"
       id="path282" />
    <path
       d="M1253.3 1005.7h-1v-9.95h1z"
       stroke="#3a414a"
       stroke-width=".05"
       fill="#3a414a"
       id="path284" />
    <path
       d="M1252.8 995.25l.5-.03v.54h-1v-.54z"
       fill="#3a414a"
       id="path286" />
    <path
       d="M1252.8 995.22l.54-.03v.58h-1.05v-.6zm-.46.5h.95v-.48l-.5.03-.46-.03z"
       stroke="#3a414a"
       stroke-width=".05"
       fill="#3a414a"
       id="path288" />
    <path
       d="M1252.8 1035.88l-2.86-8.84h5.75z"
       fill="#3a414a"
       id="path290" />
    <path
       d="M1252.8 1037.5l-3.4-10.46h1.06l2.35 7.22 2.36-7.22h1.05z"
       stroke="#3a414a"
       stroke-width=".05"
       fill="#3a414a"
       id="path292" />
    <g
       id="g296">
      <use
         xlink:href="#T"
         transform="matrix(1,0,0,1,1241.0100621141971,1005.7063567526793) translate(0 14.222222222222223)"
         id="use294" />
    </g>
    <path
       d="M630 286a6 6 0 0 1 6-6h148a6 6 0 0 1 6 6v69.33a6 6 0 0 1-6 6H636a6 6 0 0 1-6-6z"
       stroke="#3a414a"
       fill="#fff"
       id="path298" />
    <g
       id="g304">
      <use
         xlink:href="#s"
         transform="matrix(1,0,0,1,642,292) translate(10.685185185185183 32.27777777777778)"
         id="use300" />
      <use
         xlink:href="#n"
         transform="matrix(1,0,0,1,642,292) translate(79.75925925925927 32.27777777777778)"
         id="use302" />
    </g>
    <path
       d="M710 362.33v20.12"
       stroke="#3a414a"
       fill="none"
       id="path306" />
    <path
       d="M710.5 362.35h-1v-.52h1z"
       stroke="#3a414a"
       stroke-width=".05"
       fill="#3a414a"
       id="path308" />
    <path
       d="M710 397.2l-4.63-14.25h9.26z"
       stroke="#3a414a"
       fill="#3a414a"
       id="path310" />
    <path
       d="M710 239.67v23.45"
       stroke="#3a414a"
       fill="none"
       id="path312" />
    <path
       d="M710.5 239.68h-1v-.5h1z"
       stroke="#3a414a"
       stroke-width=".05"
       fill="#3a414a"
       id="path314" />
    <path
       d="M710 277.88l-4.63-14.26h9.26z"
       stroke="#3a414a"
       fill="#3a414a"
       id="path316" />
    <defs
       id="defs1107">
      <path
         fill="#3a414a"
         d="M205 0l-28-72H64L36 0H1l101-248h38L239 0h-34zm-38-99l-47-123c-12 45-31 82-46 123h93"
         id="aj" />
      <path
         fill="#3a414a"
         d="M85-194c31 0 48 13 60 33l-1-100h32l1 261h-30c-2-10 0-23-3-31C134-8 116 4 85 4 32 4 16-35 15-94c0-66 23-100 70-100zm9 24c-40 0-46 34-46 75 0 40 6 74 45 74 42 0 51-32 51-76 0-42-9-74-50-73"
         id="ak" />
      <g
         id="a">
        <use
           transform="matrix(0.06172839506172839,0,0,0.06172839506172839,0,0)"
           xlink:href="#aj"
           id="use320" />
        <use
           transform="matrix(0.06172839506172839,0,0,0.06172839506172839,14.814814814814813,0)"
           xlink:href="#ak"
           id="use322" />
        <use
           transform="matrix(0.06172839506172839,0,0,0.06172839506172839,27.160493827160494,0)"
           xlink:href="#ak"
           id="use324" />
      </g>
      <path
         fill="#3a414a"
         d="M100-194c62-1 85 37 85 99 1 63-27 99-86 99S16-35 15-95c0-66 28-99 85-99zM99-20c44 1 53-31 53-75 0-43-8-75-51-75s-53 32-53 75 10 74 51 75"
         id="al" />
      <path
         fill="#3a414a"
         d="M115-194c53 0 69 39 70 98 0 66-23 100-70 100C84 3 66-7 56-30L54 0H23l1-261h32v101c10-23 28-34 59-34zm-8 174c40 0 45-34 45-75 0-40-5-75-45-74-42 0-51 32-51 76 0 43 10 73 51 73"
         id="am" />
      <path
         fill="#3a414a"
         d="M24-231v-30h32v30H24zM-9 49c24 4 33-6 33-30v-209h32V24c2 40-23 58-65 49V49"
         id="an" />
      <path
         fill="#3a414a"
         d="M100-194c63 0 86 42 84 106H49c0 40 14 67 53 68 26 1 43-12 49-29l28 8c-11 28-37 45-77 45C44 4 14-33 15-96c1-61 26-98 85-98zm52 81c6-60-76-77-97-28-3 7-6 17-6 28h103"
         id="ao" />
      <path
         fill="#3a414a"
         d="M96-169c-40 0-48 33-48 73s9 75 48 75c24 0 41-14 43-38l32 2c-6 37-31 61-74 61-59 0-76-41-82-99-10-93 101-131 147-64 4 7 5 14 7 22l-32 3c-4-21-16-35-41-35"
         id="ap" />
      <path
         fill="#3a414a"
         d="M59-47c-2 24 18 29 38 22v24C64 9 27 4 27-40v-127H5v-23h24l9-43h21v43h35v23H59v120"
         id="aq" />
      <path
         fill="#3a414a"
         d="M135-143c-3-34-86-38-87 0 15 53 115 12 119 90S17 21 10-45l28-5c4 36 97 45 98 0-10-56-113-15-118-90-4-57 82-63 122-42 12 7 21 19 24 35"
         id="ar" />
      <g
         id="b">
        <use
           transform="matrix(0.06172839506172839,0,0,0.06172839506172839,0,0)"
           xlink:href="#al"
           id="use334" />
        <use
           transform="matrix(0.06172839506172839,0,0,0.06172839506172839,12.345679012345679,0)"
           xlink:href="#am"
           id="use336" />
        <use
           transform="matrix(0.06172839506172839,0,0,0.06172839506172839,24.691358024691358,0)"
           xlink:href="#an"
           id="use338" />
        <use
           transform="matrix(0.06172839506172839,0,0,0.06172839506172839,29.5679012345679,0)"
           xlink:href="#ao"
           id="use340" />
        <use
           transform="matrix(0.06172839506172839,0,0,0.06172839506172839,41.913580246913575,0)"
           xlink:href="#ap"
           id="use342" />
        <use
           transform="matrix(0.06172839506172839,0,0,0.06172839506172839,53.02469135802468,0)"
           xlink:href="#aq"
           id="use344" />
        <use
           transform="matrix(0.06172839506172839,0,0,0.06172839506172839,59.197530864197525,0)"
           xlink:href="#ar"
           id="use346" />
      </g>
      <path
         fill="#3a414a"
         d="M24-231v-30h32v30H24zM24 0v-190h32V0H24"
         id="as" />
      <path
         fill="#3a414a"
         d="M117-194c89-4 53 116 60 194h-32v-121c0-31-8-49-39-48C34-167 62-67 57 0H25l-1-190h30c1 10-1 24 2 32 11-22 29-35 61-36"
         id="at" />
      <g
         id="c">
        <use
           transform="matrix(0.06172839506172839,0,0,0.06172839506172839,0,0)"
           xlink:href="#as"
           id="use351" />
        <use
           transform="matrix(0.06172839506172839,0,0,0.06172839506172839,4.876543209876543,0)"
           xlink:href="#at"
           id="use353" />
        <use
           transform="matrix(0.06172839506172839,0,0,0.06172839506172839,17.22222222222222,0)"
           xlink:href="#aq"
           id="use355" />
        <use
           transform="matrix(0.06172839506172839,0,0,0.06172839506172839,23.39506172839506,0)"
           xlink:href="#al"
           id="use357" />
      </g>
      <g
         id="d">
        <use
           transform="matrix(0.06172839506172839,0,0,0.06172839506172839,0,0)"
           xlink:href="#ar"
           id="use360" />
        <use
           transform="matrix(0.06172839506172839,0,0,0.06172839506172839,11.11111111111111,0)"
           xlink:href="#ap"
           id="use362" />
        <use
           transform="matrix(0.06172839506172839,0,0,0.06172839506172839,22.22222222222222,0)"
           xlink:href="#ao"
           id="use364" />
        <use
           transform="matrix(0.06172839506172839,0,0,0.06172839506172839,34.5679012345679,0)"
           xlink:href="#at"
           id="use366" />
        <use
           transform="matrix(0.06172839506172839,0,0,0.06172839506172839,46.913580246913575,0)"
           xlink:href="#ao"
           id="use368" />
      </g>
      <path
         fill="#3a414a"
         d="M141-36C126-15 110 5 73 4 37 3 15-17 15-53c-1-64 63-63 125-63 3-35-9-54-41-54-24 1-41 7-42 31l-33-3c5-37 33-52 76-52 45 0 72 20 72 64v82c-1 20 7 32 28 27v20c-31 9-61-2-59-35zM48-53c0 20 12 33 32 33 41-3 63-29 60-74-43 2-92-5-92 41"
         id="au" />
      <g
         id="e">
        <use
           transform="matrix(0.06172839506172839,0,0,0.06172839506172839,0,0)"
           xlink:href="#au"
           id="use372" />
        <use
           transform="matrix(0.06172839506172839,0,0,0.06172839506172839,12.345679012345679,0)"
           xlink:href="#at"
           id="use374" />
        <use
           transform="matrix(0.06172839506172839,0,0,0.06172839506172839,24.691358024691358,0)"
           xlink:href="#ak"
           id="use376" />
      </g>
      <path
         fill="#3a414a"
         d="M24 0v-261h32V0H24"
         id="av" />
      <path
         fill="#3a414a"
         d="M114-163C36-179 61-72 57 0H25l-1-190h30c1 12-1 29 2 39 6-27 23-49 58-41v29"
         id="aw" />
      <g
         id="f">
        <use
           transform="matrix(0.06172839506172839,0,0,0.06172839506172839,0,0)"
           xlink:href="#ak"
           id="use381" />
        <use
           transform="matrix(0.06172839506172839,0,0,0.06172839506172839,12.345679012345679,0)"
           xlink:href="#ao"
           id="use383" />
        <use
           transform="matrix(0.06172839506172839,0,0,0.06172839506172839,24.691358024691358,0)"
           xlink:href="#ap"
           id="use385" />
        <use
           transform="matrix(0.06172839506172839,0,0,0.06172839506172839,35.80246913580247,0)"
           xlink:href="#av"
           id="use387" />
        <use
           transform="matrix(0.06172839506172839,0,0,0.06172839506172839,40.67901234567901,0)"
           xlink:href="#au"
           id="use389" />
        <use
           transform="matrix(0.06172839506172839,0,0,0.06172839506172839,53.02469135802469,0)"
           xlink:href="#aw"
           id="use391" />
        <use
           transform="matrix(0.06172839506172839,0,0,0.06172839506172839,60.37037037037037,0)"
           xlink:href="#ao"
           id="use393" />
      </g>
      <path
         fill="#3a414a"
         d="M108 0H70L1-190h34L89-25l56-165h34"
         id="ax" />
      <path
         fill="#3a414a"
         d="M206 0h-36l-40-164L89 0H53L-1-190h32L70-26l43-164h34l41 164 42-164h31"
         id="ay" />
      <path
         fill="#3a414a"
         d="M115-194c55 1 70 41 70 98S169 2 115 4C84 4 66-9 55-30l1 105H24l-1-265h31l2 30c10-21 28-34 59-34zm-8 174c40 0 45-34 45-75s-6-73-45-74c-42 0-51 32-51 76 0 43 10 73 51 73"
         id="az" />
      <g
         id="g">
        <use
           transform="matrix(0.06172839506172839,0,0,0.06172839506172839,0,0)"
           xlink:href="#ax"
           id="use399" />
        <use
           transform="matrix(0.06172839506172839,0,0,0.06172839506172839,11.11111111111111,0)"
           xlink:href="#as"
           id="use401" />
        <use
           transform="matrix(0.06172839506172839,0,0,0.06172839506172839,15.987654320987653,0)"
           xlink:href="#ao"
           id="use403" />
        <use
           transform="matrix(0.06172839506172839,0,0,0.06172839506172839,28.333333333333332,0)"
           xlink:href="#ay"
           id="use405" />
        <use
           transform="matrix(0.06172839506172839,0,0,0.06172839506172839,44.32098765432099,0)"
           xlink:href="#az"
           id="use407" />
        <use
           transform="matrix(0.06172839506172839,0,0,0.06172839506172839,56.666666666666664,0)"
           xlink:href="#al"
           id="use409" />
        <use
           transform="matrix(0.06172839506172839,0,0,0.06172839506172839,69.01234567901234,0)"
           xlink:href="#aw"
           id="use411" />
        <use
           transform="matrix(0.06172839506172839,0,0,0.06172839506172839,76.35802469135803,0)"
           xlink:href="#aq"
           id="use413" />
      </g>
      <path
         fill="#3a414a"
         d="M177-190C167-65 218 103 67 71c-23-6-38-20-44-43l32-5c15 47 100 32 89-28v-30C133-14 115 1 83 1 29 1 15-40 15-95c0-56 16-97 71-98 29-1 48 16 59 35 1-10 0-23 2-32h30zM94-22c36 0 50-32 50-73 0-42-14-75-50-75-39 0-46 34-46 75s6 73 46 73"
         id="aA" />
      <g
         id="h">
        <use
           transform="matrix(0.06172839506172839,0,0,0.06172839506172839,0,0)"
           xlink:href="#ar"
           id="use417" />
        <use
           transform="matrix(0.06172839506172839,0,0,0.06172839506172839,11.11111111111111,0)"
           xlink:href="#ao"
           id="use419" />
        <use
           transform="matrix(0.06172839506172839,0,0,0.06172839506172839,23.45679012345679,0)"
           xlink:href="#aq"
           id="use421" />
        <use
           transform="matrix(0.06172839506172839,0,0,0.06172839506172839,29.62962962962963,0)"
           xlink:href="#aq"
           id="use423" />
        <use
           transform="matrix(0.06172839506172839,0,0,0.06172839506172839,35.80246913580247,0)"
           xlink:href="#as"
           id="use425" />
        <use
           transform="matrix(0.06172839506172839,0,0,0.06172839506172839,40.67901234567901,0)"
           xlink:href="#at"
           id="use427" />
        <use
           transform="matrix(0.06172839506172839,0,0,0.06172839506172839,53.02469135802469,0)"
           xlink:href="#aA"
           id="use429" />
        <use
           transform="matrix(0.06172839506172839,0,0,0.06172839506172839,65.37037037037037,0)"
           xlink:href="#ar"
           id="use431" />
      </g>
      <path
         fill="#3a414a"
         d="M212-179c-10-28-35-45-73-45-59 0-87 40-87 99 0 60 29 101 89 101 43 0 62-24 78-52l27 14C228-24 195 4 139 4 59 4 22-46 18-125c-6-104 99-153 187-111 19 9 31 26 39 46"
         id="aB" />
      <path
         fill="#3a414a"
         d="M210-169c-67 3-38 105-44 169h-31v-121c0-29-5-50-35-48C34-165 62-65 56 0H25l-1-190h30c1 10-1 24 2 32 10-44 99-50 107 0 11-21 27-35 58-36 85-2 47 119 55 194h-31v-121c0-29-5-49-35-48"
         id="aC" />
      <path
         fill="#3a414a"
         d="M84 4C-5 8 30-112 23-190h32v120c0 31 7 50 39 49 72-2 45-101 50-169h31l1 190h-30c-1-10 1-25-2-33-11 22-28 36-60 37"
         id="aD" />
      <g
         id="i">
        <use
           transform="matrix(0.06172839506172839,0,0,0.06172839506172839,0,0)"
           xlink:href="#aB"
           id="use437" />
        <use
           transform="matrix(0.06172839506172839,0,0,0.06172839506172839,15.987654320987653,0)"
           xlink:href="#al"
           id="use439" />
        <use
           transform="matrix(0.06172839506172839,0,0,0.06172839506172839,28.333333333333332,0)"
           xlink:href="#aC"
           id="use441" />
        <use
           transform="matrix(0.06172839506172839,0,0,0.06172839506172839,46.79012345679012,0)"
           xlink:href="#az"
           id="use443" />
        <use
           transform="matrix(0.06172839506172839,0,0,0.06172839506172839,59.1358024691358,0)"
           xlink:href="#aD"
           id="use445" />
        <use
           transform="matrix(0.06172839506172839,0,0,0.06172839506172839,71.48148148148148,0)"
           xlink:href="#aq"
           id="use447" />
        <use
           transform="matrix(0.06172839506172839,0,0,0.06172839506172839,77.65432098765432,0)"
           xlink:href="#ao"
           id="use449" />
      </g>
      <path
         fill="#3a414a"
         d="M179-190L93 31C79 59 56 82 12 73V49c39 6 53-20 64-50L1-190h34L92-34l54-156h33"
         id="aE" />
      <g
         id="j">
        <use
           transform="matrix(0.06172839506172839,0,0,0.06172839506172839,0,0)"
           xlink:href="#aw"
           id="use453" />
        <use
           transform="matrix(0.06172839506172839,0,0,0.06172839506172839,7.345679012345679,0)"
           xlink:href="#au"
           id="use455" />
        <use
           transform="matrix(0.06172839506172839,0,0,0.06172839506172839,19.691358024691358,0)"
           xlink:href="#aE"
           id="use457" />
      </g>
      <path
         fill="#3a414a"
         d="M101-234c-31-9-42 10-38 44h38v23H63V0H32v-167H5v-23h27c-7-52 17-82 69-68v24"
         id="aF" />
      <g
         id="k">
        <use
           transform="matrix(0.06172839506172839,0,0,0.06172839506172839,0,0)"
           xlink:href="#aF"
           id="use461" />
        <use
           transform="matrix(0.06172839506172839,0,0,0.06172839506172839,6.172839506172839,0)"
           xlink:href="#aw"
           id="use463" />
        <use
           transform="matrix(0.06172839506172839,0,0,0.06172839506172839,13.518518518518519,0)"
           xlink:href="#al"
           id="use465" />
        <use
           transform="matrix(0.06172839506172839,0,0,0.06172839506172839,25.864197530864196,0)"
           xlink:href="#aC"
           id="use467" />
      </g>
      <g
         id="l">
        <use
           transform="matrix(0.06172839506172839,0,0,0.06172839506172839,0,0)"
           xlink:href="#ap"
           id="use470" />
        <use
           transform="matrix(0.06172839506172839,0,0,0.06172839506172839,11.11111111111111,0)"
           xlink:href="#au"
           id="use472" />
        <use
           transform="matrix(0.06172839506172839,0,0,0.06172839506172839,23.45679012345679,0)"
           xlink:href="#aC"
           id="use474" />
        <use
           transform="matrix(0.06172839506172839,0,0,0.06172839506172839,41.91358024691358,0)"
           xlink:href="#ao"
           id="use476" />
        <use
           transform="matrix(0.06172839506172839,0,0,0.06172839506172839,54.25925925925926,0)"
           xlink:href="#aw"
           id="use478" />
        <use
           transform="matrix(0.06172839506172839,0,0,0.06172839506172839,61.60493827160494,0)"
           xlink:href="#au"
           id="use480" />
      </g>
      <g
         id="m">
        <use
           transform="matrix(0.06172839506172839,0,0,0.06172839506172839,0,0)"
           xlink:href="#aq"
           id="use483" />
        <use
           transform="matrix(0.06172839506172839,0,0,0.06172839506172839,6.172839506172839,0)"
           xlink:href="#al"
           id="use485" />
      </g>
      <path
         fill="#3a414a"
         d="M141 0L90-78 38 0H4l68-98-65-92h35l48 74 47-74h35l-64 92 68 98h-35"
         id="aG" />
      <g
         id="n">
        <use
           transform="matrix(0.06172839506172839,0,0,0.06172839506172839,0,0)"
           xlink:href="#az"
           id="use489" />
        <use
           transform="matrix(0.06172839506172839,0,0,0.06172839506172839,12.345679012345679,0)"
           xlink:href="#as"
           id="use491" />
        <use
           transform="matrix(0.06172839506172839,0,0,0.06172839506172839,17.22222222222222,0)"
           xlink:href="#aG"
           id="use493" />
        <use
           transform="matrix(0.06172839506172839,0,0,0.06172839506172839,28.333333333333332,0)"
           xlink:href="#ao"
           id="use495" />
        <use
           transform="matrix(0.06172839506172839,0,0,0.06172839506172839,40.67901234567901,0)"
           xlink:href="#av"
           id="use497" />
      </g>
      <path
         fill="#3a414a"
         d="M30-248c118-7 216 8 213 122C240-48 200 0 122 0H30v-248zM63-27c89 8 146-16 146-99s-60-101-146-95v194"
         id="aH" />
      <g
         id="o">
        <use
           transform="matrix(0.06172839506172839,0,0,0.06172839506172839,0,0)"
           xlink:href="#aH"
           id="use501" />
        <use
           transform="matrix(0.06172839506172839,0,0,0.06172839506172839,15.987654320987653,0)"
           xlink:href="#al"
           id="use503" />
        <use
           transform="matrix(0.06172839506172839,0,0,0.06172839506172839,28.333333333333332,0)"
           xlink:href="#ao"
           id="use505" />
        <use
           transform="matrix(0.06172839506172839,0,0,0.06172839506172839,40.67901234567901,0)"
           xlink:href="#ar"
           id="use507" />
      </g>
      <g
         id="p">
        <use
           transform="matrix(0.06172839506172839,0,0,0.06172839506172839,0,0)"
           xlink:href="#aw"
           id="use510" />
        <use
           transform="matrix(0.06172839506172839,0,0,0.06172839506172839,7.345679012345679,0)"
           xlink:href="#au"
           id="use512" />
        <use
           transform="matrix(0.06172839506172839,0,0,0.06172839506172839,19.691358024691358,0)"
           xlink:href="#aE"
           id="use514" />
      </g>
      <g
         id="q">
        <use
           transform="matrix(0.06172839506172839,0,0,0.06172839506172839,0,0)"
           xlink:href="#as"
           id="use517" />
        <use
           transform="matrix(0.06172839506172839,0,0,0.06172839506172839,4.876543209876543,0)"
           xlink:href="#at"
           id="use519" />
        <use
           transform="matrix(0.06172839506172839,0,0,0.06172839506172839,17.22222222222222,0)"
           xlink:href="#aq"
           id="use521" />
        <use
           transform="matrix(0.06172839506172839,0,0,0.06172839506172839,23.39506172839506,0)"
           xlink:href="#ao"
           id="use523" />
        <use
           transform="matrix(0.06172839506172839,0,0,0.06172839506172839,35.74074074074074,0)"
           xlink:href="#aw"
           id="use525" />
        <use
           transform="matrix(0.06172839506172839,0,0,0.06172839506172839,43.08641975308642,0)"
           xlink:href="#ar"
           id="use527" />
        <use
           transform="matrix(0.06172839506172839,0,0,0.06172839506172839,54.19753086419753,0)"
           xlink:href="#ao"
           id="use529" />
        <use
           transform="matrix(0.06172839506172839,0,0,0.06172839506172839,66.54320987654322,0)"
           xlink:href="#ap"
           id="use531" />
        <use
           transform="matrix(0.06172839506172839,0,0,0.06172839506172839,77.65432098765433,0)"
           xlink:href="#aq"
           id="use533" />
      </g>
      <path
         fill="#3a414a"
         d="M103-251c84 0 111 97 45 133-19 10-37 24-39 52H78c0-63 77-55 77-114 0-30-21-42-52-43-32 0-53 17-56 46l-32-2c7-45 34-72 88-72zM77 0v-35h34V0H77"
         id="aI" />
      <g
         id="r">
        <use
           transform="matrix(0.06172839506172839,0,0,0.06172839506172839,0,0)"
           xlink:href="#al"
           id="use537" />
        <use
           transform="matrix(0.06172839506172839,0,0,0.06172839506172839,12.345679012345679,0)"
           xlink:href="#am"
           id="use539" />
        <use
           transform="matrix(0.06172839506172839,0,0,0.06172839506172839,24.691358024691358,0)"
           xlink:href="#an"
           id="use541" />
        <use
           transform="matrix(0.06172839506172839,0,0,0.06172839506172839,29.5679012345679,0)"
           xlink:href="#ao"
           id="use543" />
        <use
           transform="matrix(0.06172839506172839,0,0,0.06172839506172839,41.913580246913575,0)"
           xlink:href="#ap"
           id="use545" />
        <use
           transform="matrix(0.06172839506172839,0,0,0.06172839506172839,53.02469135802468,0)"
           xlink:href="#aq"
           id="use547" />
        <use
           transform="matrix(0.06172839506172839,0,0,0.06172839506172839,59.197530864197525,0)"
           xlink:href="#aI"
           id="use549" />
      </g>
      <path
         fill="#3a414a"
         d="M33 0v-248h34V0H33"
         id="aJ" />
      <g
         id="s">
        <use
           transform="matrix(0.06172839506172839,0,0,0.06172839506172839,0,0)"
           xlink:href="#aJ"
           id="use553" />
        <use
           transform="matrix(0.06172839506172839,0,0,0.06172839506172839,6.172839506172839,0)"
           xlink:href="#aq"
           id="use555" />
        <use
           transform="matrix(0.06172839506172839,0,0,0.06172839506172839,12.345679012345679,0)"
           xlink:href="#ao"
           id="use557" />
        <use
           transform="matrix(0.06172839506172839,0,0,0.06172839506172839,24.691358024691358,0)"
           xlink:href="#aw"
           id="use559" />
        <use
           transform="matrix(0.06172839506172839,0,0,0.06172839506172839,32.03703703703704,0)"
           xlink:href="#au"
           id="use561" />
        <use
           transform="matrix(0.06172839506172839,0,0,0.06172839506172839,44.382716049382715,0)"
           xlink:href="#aq"
           id="use563" />
        <use
           transform="matrix(0.06172839506172839,0,0,0.06172839506172839,50.55555555555556,0)"
           xlink:href="#ao"
           id="use565" />
      </g>
      <path
         fill="#3a414a"
         d="M106-169C34-169 62-67 57 0H25v-261h32l-1 103c12-21 28-36 61-36 89 0 53 116 60 194h-32v-121c2-32-8-49-39-48"
         id="aK" />
      <path
         fill="#3a414a"
         d="M-5 72V49h209v23H-5"
         id="aL" />
      <g
         id="t">
        <use
           transform="matrix(0.06172839506172839,0,0,0.06172839506172839,0,0)"
           xlink:href="#aK"
           id="use570" />
        <use
           transform="matrix(0.06172839506172839,0,0,0.06172839506172839,12.345679012345679,0)"
           xlink:href="#as"
           id="use572" />
        <use
           transform="matrix(0.06172839506172839,0,0,0.06172839506172839,17.22222222222222,0)"
           xlink:href="#aq"
           id="use574" />
        <use
           transform="matrix(0.06172839506172839,0,0,0.06172839506172839,23.39506172839506,0)"
           xlink:href="#aq"
           id="use576" />
        <use
           transform="matrix(0.06172839506172839,0,0,0.06172839506172839,29.5679012345679,0)"
           xlink:href="#au"
           id="use578" />
        <use
           transform="matrix(0.06172839506172839,0,0,0.06172839506172839,41.913580246913575,0)"
           xlink:href="#am"
           id="use580" />
        <use
           transform="matrix(0.06172839506172839,0,0,0.06172839506172839,54.25925925925925,0)"
           xlink:href="#av"
           id="use582" />
        <use
           transform="matrix(0.06172839506172839,0,0,0.06172839506172839,59.1358024691358,0)"
           xlink:href="#ao"
           id="use584" />
        <use
           transform="matrix(0.06172839506172839,0,0,0.06172839506172839,71.48148148148148,0)"
           xlink:href="#aL"
           id="use586" />
        <use
           transform="matrix(0.06172839506172839,0,0,0.06172839506172839,83.82716049382717,0)"
           xlink:href="#av"
           id="use588" />
        <use
           transform="matrix(0.06172839506172839,0,0,0.06172839506172839,88.70370370370371,0)"
           xlink:href="#as"
           id="use590" />
        <use
           transform="matrix(0.06172839506172839,0,0,0.06172839506172839,93.58024691358025,0)"
           xlink:href="#ar"
           id="use592" />
        <use
           transform="matrix(0.06172839506172839,0,0,0.06172839506172839,104.69135802469137,0)"
           xlink:href="#aq"
           id="use594" />
      </g>
      <g
         id="u">
        <use
           transform="matrix(0.06172839506172839,0,0,0.06172839506172839,0,0)"
           xlink:href="#ay"
           id="use597" />
        <use
           transform="matrix(0.06172839506172839,0,0,0.06172839506172839,15.987654320987653,0)"
           xlink:href="#aK"
           id="use599" />
        <use
           transform="matrix(0.06172839506172839,0,0,0.06172839506172839,28.333333333333332,0)"
           xlink:href="#as"
           id="use601" />
        <use
           transform="matrix(0.06172839506172839,0,0,0.06172839506172839,33.20987654320987,0)"
           xlink:href="#ap"
           id="use603" />
        <use
           transform="matrix(0.06172839506172839,0,0,0.06172839506172839,44.32098765432099,0)"
           xlink:href="#aK"
           id="use605" />
      </g>
      <g
         id="v">
        <use
           transform="matrix(0.06172839506172839,0,0,0.06172839506172839,0,0)"
           xlink:href="#ap"
           id="use608" />
        <use
           transform="matrix(0.06172839506172839,0,0,0.06172839506172839,11.11111111111111,0)"
           xlink:href="#al"
           id="use610" />
        <use
           transform="matrix(0.06172839506172839,0,0,0.06172839506172839,23.45679012345679,0)"
           xlink:href="#at"
           id="use612" />
        <use
           transform="matrix(0.06172839506172839,0,0,0.06172839506172839,35.80246913580247,0)"
           xlink:href="#aq"
           id="use614" />
        <use
           transform="matrix(0.06172839506172839,0,0,0.06172839506172839,41.97530864197531,0)"
           xlink:href="#au"
           id="use616" />
        <use
           transform="matrix(0.06172839506172839,0,0,0.06172839506172839,54.32098765432099,0)"
           xlink:href="#as"
           id="use618" />
        <use
           transform="matrix(0.06172839506172839,0,0,0.06172839506172839,59.19753086419753,0)"
           xlink:href="#at"
           id="use620" />
        <use
           transform="matrix(0.06172839506172839,0,0,0.06172839506172839,71.54320987654322,0)"
           xlink:href="#ar"
           id="use622" />
      </g>
      <g
         id="w">
        <use
           transform="matrix(0.06172839506172839,0,0,0.06172839506172839,0,0)"
           xlink:href="#au"
           id="use625" />
        <use
           transform="matrix(0.06172839506172839,0,0,0.06172839506172839,12.345679012345679,0)"
           xlink:href="#av"
           id="use627" />
        <use
           transform="matrix(0.06172839506172839,0,0,0.06172839506172839,17.22222222222222,0)"
           xlink:href="#av"
           id="use629" />
      </g>
      <g
         id="x">
        <use
           transform="matrix(0.06172839506172839,0,0,0.06172839506172839,0,0)"
           xlink:href="#al"
           id="use632" />
        <use
           transform="matrix(0.06172839506172839,0,0,0.06172839506172839,12.345679012345679,0)"
           xlink:href="#am"
           id="use634" />
        <use
           transform="matrix(0.06172839506172839,0,0,0.06172839506172839,24.691358024691358,0)"
           xlink:href="#an"
           id="use636" />
        <use
           transform="matrix(0.06172839506172839,0,0,0.06172839506172839,29.5679012345679,0)"
           xlink:href="#ao"
           id="use638" />
        <use
           transform="matrix(0.06172839506172839,0,0,0.06172839506172839,41.913580246913575,0)"
           xlink:href="#ap"
           id="use640" />
        <use
           transform="matrix(0.06172839506172839,0,0,0.06172839506172839,53.02469135802468,0)"
           xlink:href="#aq"
           id="use642" />
        <use
           transform="matrix(0.06172839506172839,0,0,0.06172839506172839,59.197530864197525,0)"
           xlink:href="#ar"
           id="use644" />
      </g>
      <g
         id="y">
        <use
           transform="matrix(0.06172839506172839,0,0,0.06172839506172839,0,0)"
           xlink:href="#ak"
           id="use647" />
        <use
           transform="matrix(0.06172839506172839,0,0,0.06172839506172839,12.345679012345679,0)"
           xlink:href="#as"
           id="use649" />
        <use
           transform="matrix(0.06172839506172839,0,0,0.06172839506172839,17.22222222222222,0)"
           xlink:href="#ar"
           id="use651" />
        <use
           transform="matrix(0.06172839506172839,0,0,0.06172839506172839,28.333333333333332,0)"
           xlink:href="#aq"
           id="use653" />
        <use
           transform="matrix(0.06172839506172839,0,0,0.06172839506172839,34.50617283950617,0)"
           xlink:href="#au"
           id="use655" />
        <use
           transform="matrix(0.06172839506172839,0,0,0.06172839506172839,46.85185185185185,0)"
           xlink:href="#at"
           id="use657" />
        <use
           transform="matrix(0.06172839506172839,0,0,0.06172839506172839,59.197530864197525,0)"
           xlink:href="#ap"
           id="use659" />
        <use
           transform="matrix(0.06172839506172839,0,0,0.06172839506172839,70.30864197530863,0)"
           xlink:href="#ao"
           id="use661" />
      </g>
      <g
         id="z">
        <use
           transform="matrix(0.06172839506172839,0,0,0.06172839506172839,0,0)"
           xlink:href="#aq"
           id="use664" />
        <use
           transform="matrix(0.06172839506172839,0,0,0.06172839506172839,6.172839506172839,0)"
           xlink:href="#aw"
           id="use666" />
        <use
           transform="matrix(0.06172839506172839,0,0,0.06172839506172839,13.518518518518519,0)"
           xlink:href="#au"
           id="use668" />
        <use
           transform="matrix(0.06172839506172839,0,0,0.06172839506172839,25.864197530864196,0)"
           xlink:href="#ax"
           id="use670" />
        <use
           transform="matrix(0.06172839506172839,0,0,0.06172839506172839,36.9753086419753,0)"
           xlink:href="#ao"
           id="use672" />
        <use
           transform="matrix(0.06172839506172839,0,0,0.06172839506172839,49.32098765432098,0)"
           xlink:href="#av"
           id="use674" />
        <use
           transform="matrix(0.06172839506172839,0,0,0.06172839506172839,54.197530864197525,0)"
           xlink:href="#ar"
           id="use676" />
      </g>
      <g
         id="A">
        <use
           transform="matrix(0.06172839506172839,0,0,0.06172839506172839,0,0)"
           xlink:href="#aq"
           id="use679" />
        <use
           transform="matrix(0.06172839506172839,0,0,0.06172839506172839,6.172839506172839,0)"
           xlink:href="#aK"
           id="use681" />
        <use
           transform="matrix(0.06172839506172839,0,0,0.06172839506172839,18.51851851851852,0)"
           xlink:href="#aw"
           id="use683" />
        <use
           transform="matrix(0.06172839506172839,0,0,0.06172839506172839,25.864197530864196,0)"
           xlink:href="#al"
           id="use685" />
        <use
           transform="matrix(0.06172839506172839,0,0,0.06172839506172839,38.20987654320987,0)"
           xlink:href="#aD"
           id="use687" />
        <use
           transform="matrix(0.06172839506172839,0,0,0.06172839506172839,50.55555555555555,0)"
           xlink:href="#aA"
           id="use689" />
        <use
           transform="matrix(0.06172839506172839,0,0,0.06172839506172839,62.90123456790123,0)"
           xlink:href="#aK"
           id="use691" />
      </g>
      <g
         id="B">
        <use
           transform="matrix(0.06172839506172839,0,0,0.06172839506172839,0,0)"
           xlink:href="#al"
           id="use694" />
        <use
           transform="matrix(0.06172839506172839,0,0,0.06172839506172839,12.345679012345679,0)"
           xlink:href="#am"
           id="use696" />
        <use
           transform="matrix(0.06172839506172839,0,0,0.06172839506172839,24.691358024691358,0)"
           xlink:href="#an"
           id="use698" />
        <use
           transform="matrix(0.06172839506172839,0,0,0.06172839506172839,29.5679012345679,0)"
           xlink:href="#ao"
           id="use700" />
        <use
           transform="matrix(0.06172839506172839,0,0,0.06172839506172839,41.913580246913575,0)"
           xlink:href="#ap"
           id="use702" />
        <use
           transform="matrix(0.06172839506172839,0,0,0.06172839506172839,53.02469135802468,0)"
           xlink:href="#aq"
           id="use704" />
      </g>
      <path
         fill="#333"
         d="M146-102V0H94v-102L6-248h54l60 105 60-105h54"
         id="aM" />
      <path
         fill="#333"
         d="M185-48c-13 30-37 53-82 52C43 2 14-33 14-96s30-98 90-98c62 0 83 45 84 108H66c0 31 8 55 39 56 18 0 30-7 34-22zm-45-69c5-46-57-63-70-21-2 6-4 13-4 21h74"
         id="aN" />
      <path
         fill="#333"
         d="M137-138c1-29-70-34-71-4 15 46 118 7 119 86 1 83-164 76-172 9l43-7c4 19 20 25 44 25 33 8 57-30 24-41C81-84 22-81 20-136c-2-80 154-74 161-7"
         id="aO" />
      <g
         id="C">
        <use
           transform="matrix(0.04938271604938272,0,0,0.04938271604938272,0,0)"
           xlink:href="#aM"
           id="use710" />
        <use
           transform="matrix(0.04938271604938272,0,0,0.04938271604938272,10.864197530864198,0)"
           xlink:href="#aN"
           id="use712" />
        <use
           transform="matrix(0.04938271604938272,0,0,0.04938271604938272,20.74074074074074,0)"
           xlink:href="#aO"
           id="use714" />
      </g>
      <g
         id="D">
        <use
           transform="matrix(0.06172839506172839,0,0,0.06172839506172839,0,0)"
           xlink:href="#aq"
           id="use717" />
        <use
           transform="matrix(0.06172839506172839,0,0,0.06172839506172839,6.172839506172839,0)"
           xlink:href="#aw"
           id="use719" />
        <use
           transform="matrix(0.06172839506172839,0,0,0.06172839506172839,13.518518518518519,0)"
           xlink:href="#au"
           id="use721" />
        <use
           transform="matrix(0.06172839506172839,0,0,0.06172839506172839,25.864197530864196,0)"
           xlink:href="#at"
           id="use723" />
        <use
           transform="matrix(0.06172839506172839,0,0,0.06172839506172839,38.20987654320987,0)"
           xlink:href="#ar"
           id="use725" />
        <use
           transform="matrix(0.06172839506172839,0,0,0.06172839506172839,49.32098765432099,0)"
           xlink:href="#aC"
           id="use727" />
        <use
           transform="matrix(0.06172839506172839,0,0,0.06172839506172839,67.77777777777777,0)"
           xlink:href="#as"
           id="use729" />
        <use
           transform="matrix(0.06172839506172839,0,0,0.06172839506172839,72.65432098765432,0)"
           xlink:href="#ar"
           id="use731" />
        <use
           transform="matrix(0.06172839506172839,0,0,0.06172839506172839,83.76543209876543,0)"
           xlink:href="#ar"
           id="use733" />
        <use
           transform="matrix(0.06172839506172839,0,0,0.06172839506172839,94.87654320987654,0)"
           xlink:href="#as"
           id="use735" />
        <use
           transform="matrix(0.06172839506172839,0,0,0.06172839506172839,99.75308641975309,0)"
           xlink:href="#al"
           id="use737" />
        <use
           transform="matrix(0.06172839506172839,0,0,0.06172839506172839,112.09876543209877,0)"
           xlink:href="#at"
           id="use739" />
      </g>
      <g
         id="E">
        <use
           transform="matrix(0.06172839506172839,0,0,0.06172839506172839,0,0)"
           xlink:href="#az"
           id="use742" />
        <use
           transform="matrix(0.06172839506172839,0,0,0.06172839506172839,12.345679012345679,0)"
           xlink:href="#aw"
           id="use744" />
        <use
           transform="matrix(0.06172839506172839,0,0,0.06172839506172839,19.691358024691358,0)"
           xlink:href="#al"
           id="use746" />
        <use
           transform="matrix(0.06172839506172839,0,0,0.06172839506172839,32.03703703703704,0)"
           xlink:href="#am"
           id="use748" />
        <use
           transform="matrix(0.06172839506172839,0,0,0.06172839506172839,44.382716049382715,0)"
           xlink:href="#au"
           id="use750" />
        <use
           transform="matrix(0.06172839506172839,0,0,0.06172839506172839,56.72839506172839,0)"
           xlink:href="#am"
           id="use752" />
        <use
           transform="matrix(0.06172839506172839,0,0,0.06172839506172839,69.07407407407408,0)"
           xlink:href="#as"
           id="use754" />
        <use
           transform="matrix(0.06172839506172839,0,0,0.06172839506172839,73.95061728395062,0)"
           xlink:href="#av"
           id="use756" />
        <use
           transform="matrix(0.06172839506172839,0,0,0.06172839506172839,78.82716049382717,0)"
           xlink:href="#as"
           id="use758" />
        <use
           transform="matrix(0.06172839506172839,0,0,0.06172839506172839,83.70370370370371,0)"
           xlink:href="#aq"
           id="use760" />
        <use
           transform="matrix(0.06172839506172839,0,0,0.06172839506172839,89.87654320987654,0)"
           xlink:href="#aE"
           id="use762" />
      </g>
      <g
         id="F">
        <use
           transform="matrix(0.06172839506172839,0,0,0.06172839506172839,0,0)"
           xlink:href="#al"
           id="use765" />
        <use
           transform="matrix(0.06172839506172839,0,0,0.06172839506172839,12.345679012345679,0)"
           xlink:href="#aF"
           id="use767" />
      </g>
      <path
         fill="#3a414a"
         d="M68-38c1 34 0 65-14 84H32c9-13 17-26 17-46H33v-38h35"
         id="aP" />
      <g
         id="G">
        <use
           transform="matrix(0.06172839506172839,0,0,0.06172839506172839,0,0)"
           xlink:href="#al"
           id="use771" />
        <use
           transform="matrix(0.06172839506172839,0,0,0.06172839506172839,12.345679012345679,0)"
           xlink:href="#am"
           id="use773" />
        <use
           transform="matrix(0.06172839506172839,0,0,0.06172839506172839,24.691358024691358,0)"
           xlink:href="#an"
           id="use775" />
        <use
           transform="matrix(0.06172839506172839,0,0,0.06172839506172839,29.5679012345679,0)"
           xlink:href="#ao"
           id="use777" />
        <use
           transform="matrix(0.06172839506172839,0,0,0.06172839506172839,41.913580246913575,0)"
           xlink:href="#ap"
           id="use779" />
        <use
           transform="matrix(0.06172839506172839,0,0,0.06172839506172839,53.02469135802468,0)"
           xlink:href="#aq"
           id="use781" />
        <use
           transform="matrix(0.06172839506172839,0,0,0.06172839506172839,59.197530864197525,0)"
           xlink:href="#aP"
           id="use783" />
      </g>
      <g
         id="H">
        <use
           transform="matrix(0.06172839506172839,0,0,0.06172839506172839,0,0)"
           xlink:href="#aC"
           id="use786" />
        <use
           transform="matrix(0.06172839506172839,0,0,0.06172839506172839,18.456790123456788,0)"
           xlink:href="#aD"
           id="use788" />
        <use
           transform="matrix(0.06172839506172839,0,0,0.06172839506172839,30.80246913580247,0)"
           xlink:href="#av"
           id="use790" />
        <use
           transform="matrix(0.06172839506172839,0,0,0.06172839506172839,35.67901234567901,0)"
           xlink:href="#aq"
           id="use792" />
        <use
           transform="matrix(0.06172839506172839,0,0,0.06172839506172839,41.851851851851855,0)"
           xlink:href="#as"
           id="use794" />
        <use
           transform="matrix(0.06172839506172839,0,0,0.06172839506172839,46.7283950617284,0)"
           xlink:href="#az"
           id="use796" />
        <use
           transform="matrix(0.06172839506172839,0,0,0.06172839506172839,59.074074074074076,0)"
           xlink:href="#av"
           id="use798" />
        <use
           transform="matrix(0.06172839506172839,0,0,0.06172839506172839,63.95061728395061,0)"
           xlink:href="#aE"
           id="use800" />
      </g>
      <g
         id="I">
        <use
           transform="matrix(0.06172839506172839,0,0,0.06172839506172839,0,0)"
           xlink:href="#am"
           id="use803" />
        <use
           transform="matrix(0.06172839506172839,0,0,0.06172839506172839,12.345679012345679,0)"
           xlink:href="#aE"
           id="use805" />
      </g>
      <g
         id="J">
        <use
           transform="matrix(0.06172839506172839,0,0,0.06172839506172839,0,0)"
           xlink:href="#aq"
           id="use808" />
        <use
           transform="matrix(0.06172839506172839,0,0,0.06172839506172839,6.172839506172839,0)"
           xlink:href="#al"
           id="use810" />
        <use
           transform="matrix(0.06172839506172839,0,0,0.06172839506172839,18.51851851851852,0)"
           xlink:href="#aq"
           id="use812" />
        <use
           transform="matrix(0.06172839506172839,0,0,0.06172839506172839,24.691358024691358,0)"
           xlink:href="#au"
           id="use814" />
        <use
           transform="matrix(0.06172839506172839,0,0,0.06172839506172839,37.03703703703704,0)"
           xlink:href="#av"
           id="use816" />
      </g>
      <g
         id="K">
        <use
           transform="matrix(0.06172839506172839,0,0,0.06172839506172839,0,0)"
           xlink:href="#al"
           id="use819" />
        <use
           transform="matrix(0.06172839506172839,0,0,0.06172839506172839,12.345679012345679,0)"
           xlink:href="#aF"
           id="use821" />
        <use
           transform="matrix(0.06172839506172839,0,0,0.06172839506172839,18.08641975308642,0)"
           xlink:href="#aF"
           id="use823" />
      </g>
      <g
         id="L">
        <use
           transform="matrix(0.06172839506172839,0,0,0.06172839506172839,0,0)"
           xlink:href="#aw"
           id="use826" />
        <use
           transform="matrix(0.06172839506172839,0,0,0.06172839506172839,7.345679012345679,0)"
           xlink:href="#au"
           id="use828" />
        <use
           transform="matrix(0.06172839506172839,0,0,0.06172839506172839,19.691358024691358,0)"
           xlink:href="#aE"
           id="use830" />
        <use
           transform="matrix(0.06172839506172839,0,0,0.06172839506172839,29.1358024691358,0)"
           xlink:href="#aP"
           id="use832" />
      </g>
      <g
         id="M">
        <use
           transform="matrix(0.06172839506172839,0,0,0.06172839506172839,0,0)"
           xlink:href="#ar"
           id="use835" />
        <use
           transform="matrix(0.06172839506172839,0,0,0.06172839506172839,11.11111111111111,0)"
           xlink:href="#ao"
           id="use837" />
        <use
           transform="matrix(0.06172839506172839,0,0,0.06172839506172839,23.45679012345679,0)"
           xlink:href="#aq"
           id="use839" />
      </g>
      <g
         id="N">
        <use
           transform="matrix(0.06172839506172839,0,0,0.06172839506172839,0,0)"
           xlink:href="#az"
           id="use842" />
        <use
           transform="matrix(0.06172839506172839,0,0,0.06172839506172839,12.345679012345679,0)"
           xlink:href="#aw"
           id="use844" />
        <use
           transform="matrix(0.06172839506172839,0,0,0.06172839506172839,19.691358024691358,0)"
           xlink:href="#al"
           id="use846" />
        <use
           transform="matrix(0.06172839506172839,0,0,0.06172839506172839,32.03703703703704,0)"
           xlink:href="#am"
           id="use848" />
        <use
           transform="matrix(0.06172839506172839,0,0,0.06172839506172839,44.382716049382715,0)"
           xlink:href="#au"
           id="use850" />
        <use
           transform="matrix(0.06172839506172839,0,0,0.06172839506172839,56.72839506172839,0)"
           xlink:href="#am"
           id="use852" />
        <use
           transform="matrix(0.06172839506172839,0,0,0.06172839506172839,69.07407407407408,0)"
           xlink:href="#as"
           id="use854" />
        <use
           transform="matrix(0.06172839506172839,0,0,0.06172839506172839,73.95061728395062,0)"
           xlink:href="#av"
           id="use856" />
        <use
           transform="matrix(0.06172839506172839,0,0,0.06172839506172839,78.82716049382717,0)"
           xlink:href="#as"
           id="use858" />
        <use
           transform="matrix(0.06172839506172839,0,0,0.06172839506172839,83.70370370370371,0)"
           xlink:href="#aq"
           id="use860" />
        <use
           transform="matrix(0.06172839506172839,0,0,0.06172839506172839,89.87654320987654,0)"
           xlink:href="#aE"
           id="use862" />
      </g>
      <path
         fill="#3a414a"
         d="M145-31C134-9 116 4 85 4 32 4 16-35 15-94c0-59 17-99 70-100 32-1 48 14 60 33 0-11-1-24 2-32h30l-1 268h-32zM93-21c41 0 51-33 51-76s-8-73-50-73c-40 0-46 35-46 75s5 74 45 74"
         id="aQ" />
      <g
         id="O">
        <use
           transform="matrix(0.06172839506172839,0,0,0.06172839506172839,0,0)"
           xlink:href="#ao"
           id="use866" />
        <use
           transform="matrix(0.06172839506172839,0,0,0.06172839506172839,12.345679012345679,0)"
           xlink:href="#aQ"
           id="use868" />
        <use
           transform="matrix(0.06172839506172839,0,0,0.06172839506172839,24.691358024691358,0)"
           xlink:href="#aD"
           id="use870" />
        <use
           transform="matrix(0.06172839506172839,0,0,0.06172839506172839,37.03703703703704,0)"
           xlink:href="#au"
           id="use872" />
        <use
           transform="matrix(0.06172839506172839,0,0,0.06172839506172839,49.382716049382715,0)"
           xlink:href="#av"
           id="use874" />
      </g>
      <g
         id="P">
        <use
           transform="matrix(0.06172839506172839,0,0,0.06172839506172839,0,0)"
           xlink:href="#az"
           id="use877" />
        <use
           transform="matrix(0.06172839506172839,0,0,0.06172839506172839,12.345679012345679,0)"
           xlink:href="#aw"
           id="use879" />
        <use
           transform="matrix(0.06172839506172839,0,0,0.06172839506172839,19.691358024691358,0)"
           xlink:href="#al"
           id="use881" />
        <use
           transform="matrix(0.06172839506172839,0,0,0.06172839506172839,32.03703703703704,0)"
           xlink:href="#ak"
           id="use883" />
        <use
           transform="matrix(0.06172839506172839,0,0,0.06172839506172839,44.382716049382715,0)"
           xlink:href="#aD"
           id="use885" />
        <use
           transform="matrix(0.06172839506172839,0,0,0.06172839506172839,56.72839506172839,0)"
           xlink:href="#ap"
           id="use887" />
        <use
           transform="matrix(0.06172839506172839,0,0,0.06172839506172839,67.8395061728395,0)"
           xlink:href="#aq"
           id="use889" />
      </g>
      <g
         id="Q">
        <use
           transform="matrix(0.06172839506172839,0,0,0.06172839506172839,0,0)"
           xlink:href="#aJ"
           id="use892" />
        <use
           transform="matrix(0.06172839506172839,0,0,0.06172839506172839,6.172839506172839,0)"
           xlink:href="#ar"
           id="use894" />
      </g>
      <g
         id="R">
        <use
           transform="matrix(0.06172839506172839,0,0,0.06172839506172839,0,0)"
           xlink:href="#aK"
           id="use897" />
        <use
           transform="matrix(0.06172839506172839,0,0,0.06172839506172839,12.345679012345679,0)"
           xlink:href="#as"
           id="use899" />
        <use
           transform="matrix(0.06172839506172839,0,0,0.06172839506172839,17.22222222222222,0)"
           xlink:href="#aq"
           id="use901" />
        <use
           transform="matrix(0.06172839506172839,0,0,0.06172839506172839,23.39506172839506,0)"
           xlink:href="#aq"
           id="use903" />
        <use
           transform="matrix(0.06172839506172839,0,0,0.06172839506172839,29.5679012345679,0)"
           xlink:href="#au"
           id="use905" />
        <use
           transform="matrix(0.06172839506172839,0,0,0.06172839506172839,41.913580246913575,0)"
           xlink:href="#am"
           id="use907" />
        <use
           transform="matrix(0.06172839506172839,0,0,0.06172839506172839,54.25925925925925,0)"
           xlink:href="#av"
           id="use909" />
        <use
           transform="matrix(0.06172839506172839,0,0,0.06172839506172839,59.1358024691358,0)"
           xlink:href="#ao"
           id="use911" />
        <use
           transform="matrix(0.06172839506172839,0,0,0.06172839506172839,71.48148148148148,0)"
           xlink:href="#aL"
           id="use913" />
        <use
           transform="matrix(0.06172839506172839,0,0,0.06172839506172839,83.82716049382717,0)"
           xlink:href="#av"
           id="use915" />
        <use
           transform="matrix(0.06172839506172839,0,0,0.06172839506172839,88.70370370370371,0)"
           xlink:href="#as"
           id="use917" />
        <use
           transform="matrix(0.06172839506172839,0,0,0.06172839506172839,93.58024691358025,0)"
           xlink:href="#ar"
           id="use919" />
        <use
           transform="matrix(0.06172839506172839,0,0,0.06172839506172839,104.69135802469137,0)"
           xlink:href="#aq"
           id="use921" />
      </g>
      <g
         id="S">
        <use
           transform="matrix(0.06172839506172839,0,0,0.06172839506172839,0,0)"
           xlink:href="#ao"
           id="use924" />
        <use
           transform="matrix(0.06172839506172839,0,0,0.06172839506172839,12.345679012345679,0)"
           xlink:href="#aC"
           id="use926" />
        <use
           transform="matrix(0.06172839506172839,0,0,0.06172839506172839,30.80246913580247,0)"
           xlink:href="#az"
           id="use928" />
        <use
           transform="matrix(0.06172839506172839,0,0,0.06172839506172839,43.148148148148145,0)"
           xlink:href="#aq"
           id="use930" />
        <use
           transform="matrix(0.06172839506172839,0,0,0.06172839506172839,49.32098765432099,0)"
           xlink:href="#aE"
           id="use932" />
        <use
           transform="matrix(0.06172839506172839,0,0,0.06172839506172839,60.4320987654321,0)"
           xlink:href="#aI"
           id="use934" />
      </g>
      <path
         fill="#333"
         d="M175 0L67-191c6 58 2 128 3 191H24v-248h59L193-55c-6-58-2-129-3-193h46V0h-61"
         id="aR" />
      <path
         fill="#333"
         d="M110-194c64 0 96 36 96 99 0 64-35 99-97 99-61 0-95-36-95-99 0-62 34-99 96-99zm-1 164c35 0 45-28 45-65 0-40-10-65-43-65-34 0-45 26-45 65 0 36 10 65 43 65"
         id="aS" />
      <g
         id="T">
        <use
           transform="matrix(0.04938271604938272,0,0,0.04938271604938272,0,0)"
           xlink:href="#aR"
           id="use939" />
        <use
           transform="matrix(0.04938271604938272,0,0,0.04938271604938272,12.790123456790125,0)"
           xlink:href="#aS"
           id="use941" />
      </g>
      <g
         id="U">
        <use
           transform="matrix(0.06172839506172839,0,0,0.06172839506172839,0,0)"
           xlink:href="#aH"
           id="use944" />
        <use
           transform="matrix(0.06172839506172839,0,0,0.06172839506172839,15.987654320987653,0)"
           xlink:href="#al"
           id="use946" />
      </g>
      <g
         id="V">
        <use
           transform="matrix(0.06172839506172839,0,0,0.06172839506172839,0,0)"
           xlink:href="#au"
           id="use949" />
        <use
           transform="matrix(0.06172839506172839,0,0,0.06172839506172839,12.345679012345679,0)"
           xlink:href="#at"
           id="use951" />
        <use
           transform="matrix(0.06172839506172839,0,0,0.06172839506172839,24.691358024691358,0)"
           xlink:href="#aE"
           id="use953" />
      </g>
      <g
         id="W">
        <use
           transform="matrix(0.06172839506172839,0,0,0.06172839506172839,0,0)"
           xlink:href="#az"
           id="use956" />
        <use
           transform="matrix(0.06172839506172839,0,0,0.06172839506172839,12.345679012345679,0)"
           xlink:href="#as"
           id="use958" />
        <use
           transform="matrix(0.06172839506172839,0,0,0.06172839506172839,17.22222222222222,0)"
           xlink:href="#aG"
           id="use960" />
        <use
           transform="matrix(0.06172839506172839,0,0,0.06172839506172839,28.333333333333332,0)"
           xlink:href="#ao"
           id="use962" />
        <use
           transform="matrix(0.06172839506172839,0,0,0.06172839506172839,40.67901234567901,0)"
           xlink:href="#av"
           id="use964" />
        <use
           transform="matrix(0.06172839506172839,0,0,0.06172839506172839,45.55555555555556,0)"
           xlink:href="#ar"
           id="use966" />
      </g>
      <g
         id="X">
        <use
           transform="matrix(0.06172839506172839,0,0,0.06172839506172839,0,0)"
           xlink:href="#aw"
           id="use969" />
        <use
           transform="matrix(0.06172839506172839,0,0,0.06172839506172839,7.345679012345679,0)"
           xlink:href="#ao"
           id="use971" />
        <use
           transform="matrix(0.06172839506172839,0,0,0.06172839506172839,19.691358024691358,0)"
           xlink:href="#aC"
           id="use973" />
        <use
           transform="matrix(0.06172839506172839,0,0,0.06172839506172839,38.148148148148145,0)"
           xlink:href="#au"
           id="use975" />
        <use
           transform="matrix(0.06172839506172839,0,0,0.06172839506172839,50.49382716049382,0)"
           xlink:href="#as"
           id="use977" />
        <use
           transform="matrix(0.06172839506172839,0,0,0.06172839506172839,55.37037037037037,0)"
           xlink:href="#at"
           id="use979" />
        <use
           transform="matrix(0.06172839506172839,0,0,0.06172839506172839,67.71604938271605,0)"
           xlink:href="#aI"
           id="use981" />
      </g>
      <path
         fill="#3a414a"
         d="M30 0v-248h187v28H63v79h144v27H63v87h162V0H30"
         id="aT" />
      <path
         fill="#3a414a"
         d="M190 0L58-211 59 0H30v-248h39L202-35l-2-213h31V0h-41"
         id="aU" />
      <g
         id="Y">
        <use
           transform="matrix(0.06172839506172839,0,0,0.06172839506172839,0,0)"
           xlink:href="#aT"
           id="use986" />
        <use
           transform="matrix(0.06172839506172839,0,0,0.06172839506172839,14.814814814814813,0)"
           xlink:href="#aU"
           id="use988" />
        <use
           transform="matrix(0.06172839506172839,0,0,0.06172839506172839,30.80246913580247,0)"
           xlink:href="#aH"
           id="use990" />
      </g>
      <path
         fill="#3a414a"
         d="M185-189c-5-48-123-54-124 2 14 75 158 14 163 119 3 78-121 87-175 55-17-10-28-26-33-46l33-7c5 56 141 63 141-1 0-78-155-14-162-118-5-82 145-84 179-34 5 7 8 16 11 25"
         id="aV" />
      <path
         fill="#3a414a"
         d="M127-220V0H93v-220H8v-28h204v28h-85"
         id="aW" />
      <path
         fill="#3a414a"
         d="M233-177c-1 41-23 64-60 70L243 0h-38l-65-103H63V0H30v-248c88 3 205-21 203 71zM63-129c60-2 137 13 137-47 0-61-80-42-137-45v92"
         id="aX" />
      <g
         id="Z">
        <use
           transform="matrix(0.06172839506172839,0,0,0.06172839506172839,0,0)"
           xlink:href="#aV"
           id="use996" />
        <use
           transform="matrix(0.06172839506172839,0,0,0.06172839506172839,14.814814814814813,0)"
           xlink:href="#aW"
           id="use998" />
        <use
           transform="matrix(0.06172839506172839,0,0,0.06172839506172839,26.666666666666664,0)"
           xlink:href="#aj"
           id="use1000" />
        <use
           transform="matrix(0.06172839506172839,0,0,0.06172839506172839,41.48148148148148,0)"
           xlink:href="#aX"
           id="use1002" />
        <use
           transform="matrix(0.06172839506172839,0,0,0.06172839506172839,57.03703703703703,0)"
           xlink:href="#aW"
           id="use1004" />
      </g>
      <g
         id="aa">
        <use
           transform="matrix(0.06172839506172839,0,0,0.06172839506172839,0,0)"
           xlink:href="#aV"
           id="use1007" />
        <use
           transform="matrix(0.06172839506172839,0,0,0.06172839506172839,14.814814814814813,0)"
           xlink:href="#ao"
           id="use1009" />
        <use
           transform="matrix(0.06172839506172839,0,0,0.06172839506172839,27.160493827160494,0)"
           xlink:href="#aq"
           id="use1011" />
      </g>
      <g
         id="ab">
        <use
           transform="matrix(0.06172839506172839,0,0,0.06172839506172839,0,0)"
           xlink:href="#aq"
           id="use1014" />
        <use
           transform="matrix(0.06172839506172839,0,0,0.06172839506172839,6.172839506172839,0)"
           xlink:href="#al"
           id="use1016" />
        <use
           transform="matrix(0.06172839506172839,0,0,0.06172839506172839,18.51851851851852,0)"
           xlink:href="#aq"
           id="use1018" />
        <use
           transform="matrix(0.06172839506172839,0,0,0.06172839506172839,24.691358024691358,0)"
           xlink:href="#au"
           id="use1020" />
        <use
           transform="matrix(0.06172839506172839,0,0,0.06172839506172839,37.03703703703704,0)"
           xlink:href="#av"
           id="use1022" />
      </g>
      <g
         id="ac">
        <use
           transform="matrix(0.06172839506172839,0,0,0.06172839506172839,0,0)"
           xlink:href="#aq"
           id="use1025" />
        <use
           transform="matrix(0.06172839506172839,0,0,0.06172839506172839,6.172839506172839,0)"
           xlink:href="#aw"
           id="use1027" />
        <use
           transform="matrix(0.06172839506172839,0,0,0.06172839506172839,13.518518518518519,0)"
           xlink:href="#au"
           id="use1029" />
        <use
           transform="matrix(0.06172839506172839,0,0,0.06172839506172839,25.864197530864196,0)"
           xlink:href="#at"
           id="use1031" />
        <use
           transform="matrix(0.06172839506172839,0,0,0.06172839506172839,38.20987654320987,0)"
           xlink:href="#ar"
           id="use1033" />
        <use
           transform="matrix(0.06172839506172839,0,0,0.06172839506172839,49.32098765432099,0)"
           xlink:href="#aC"
           id="use1035" />
        <use
           transform="matrix(0.06172839506172839,0,0,0.06172839506172839,67.77777777777777,0)"
           xlink:href="#as"
           id="use1037" />
        <use
           transform="matrix(0.06172839506172839,0,0,0.06172839506172839,72.65432098765432,0)"
           xlink:href="#ar"
           id="use1039" />
        <use
           transform="matrix(0.06172839506172839,0,0,0.06172839506172839,83.76543209876543,0)"
           xlink:href="#ar"
           id="use1041" />
        <use
           transform="matrix(0.06172839506172839,0,0,0.06172839506172839,94.87654320987654,0)"
           xlink:href="#as"
           id="use1043" />
        <use
           transform="matrix(0.06172839506172839,0,0,0.06172839506172839,99.75308641975309,0)"
           xlink:href="#al"
           id="use1045" />
        <use
           transform="matrix(0.06172839506172839,0,0,0.06172839506172839,112.09876543209877,0)"
           xlink:href="#at"
           id="use1047" />
      </g>
      <g
         id="ad">
        <use
           transform="matrix(0.06172839506172839,0,0,0.06172839506172839,0,0)"
           xlink:href="#al"
           id="use1050" />
        <use
           transform="matrix(0.06172839506172839,0,0,0.06172839506172839,12.345679012345679,0)"
           xlink:href="#aF"
           id="use1052" />
      </g>
      <path
         fill="#3a414a"
         d="M27 0v-27h64v-190l-56 39v-29l58-41h29v221h61V0H27"
         id="aY" />
      <path
         fill="#3a414a"
         d="M33 0v-38h34V0H33"
         id="aZ" />
      <path
         fill="#3a414a"
         d="M101-251c68 0 85 55 85 127S166 4 100 4C33 4 14-52 14-124c0-73 17-127 87-127zm-1 229c47 0 54-49 54-102s-4-102-53-102c-51 0-55 48-55 102 0 53 5 102 54 102"
         id="ba" />
      <g
         id="ae">
        <use
           transform="matrix(0.06172839506172839,0,0,0.06172839506172839,0,0)"
           xlink:href="#aY"
           id="use1058" />
        <use
           transform="matrix(0.06172839506172839,0,0,0.06172839506172839,12.345679012345679,0)"
           xlink:href="#aZ"
           id="use1060" />
        <use
           transform="matrix(0.06172839506172839,0,0,0.06172839506172839,18.51851851851852,0)"
           xlink:href="#ba"
           id="use1062" />
      </g>
      <g
         id="af">
        <use
           transform="matrix(0.06172839506172839,0,0,0.06172839506172839,0,0)"
           xlink:href="#as"
           id="use1065" />
        <use
           transform="matrix(0.06172839506172839,0,0,0.06172839506172839,4.876543209876543,0)"
           xlink:href="#at"
           id="use1067" />
        <use
           transform="matrix(0.06172839506172839,0,0,0.06172839506172839,17.22222222222222,0)"
           xlink:href="#aq"
           id="use1069" />
        <use
           transform="matrix(0.06172839506172839,0,0,0.06172839506172839,23.39506172839506,0)"
           xlink:href="#ao"
           id="use1071" />
        <use
           transform="matrix(0.06172839506172839,0,0,0.06172839506172839,35.74074074074074,0)"
           xlink:href="#at"
           id="use1073" />
        <use
           transform="matrix(0.06172839506172839,0,0,0.06172839506172839,48.08641975308642,0)"
           xlink:href="#ar"
           id="use1075" />
        <use
           transform="matrix(0.06172839506172839,0,0,0.06172839506172839,59.19753086419753,0)"
           xlink:href="#as"
           id="use1077" />
        <use
           transform="matrix(0.06172839506172839,0,0,0.06172839506172839,64.07407407407408,0)"
           xlink:href="#aq"
           id="use1079" />
        <use
           transform="matrix(0.06172839506172839,0,0,0.06172839506172839,70.24691358024691,0)"
           xlink:href="#aE"
           id="use1081" />
      </g>
      <g
         id="ag">
        <use
           transform="matrix(0.06172839506172839,0,0,0.06172839506172839,0,0)"
           xlink:href="#az"
           id="use1084" />
        <use
           transform="matrix(0.06172839506172839,0,0,0.06172839506172839,12.345679012345679,0)"
           xlink:href="#as"
           id="use1086" />
        <use
           transform="matrix(0.06172839506172839,0,0,0.06172839506172839,17.22222222222222,0)"
           xlink:href="#aG"
           id="use1088" />
        <use
           transform="matrix(0.06172839506172839,0,0,0.06172839506172839,28.333333333333332,0)"
           xlink:href="#ao"
           id="use1090" />
        <use
           transform="matrix(0.06172839506172839,0,0,0.06172839506172839,40.67901234567901,0)"
           xlink:href="#av"
           id="use1092" />
      </g>
      <g
         id="ah">
        <use
           transform="matrix(0.06172839506172839,0,0,0.06172839506172839,0,0)"
           xlink:href="#aq"
           id="use1095" />
        <use
           transform="matrix(0.06172839506172839,0,0,0.06172839506172839,6.172839506172839,0)"
           xlink:href="#al"
           id="use1097" />
      </g>
      <g
         id="ai">
        <use
           transform="matrix(0.06172839506172839,0,0,0.06172839506172839,0,0)"
           xlink:href="#aw"
           id="use1100" />
        <use
           transform="matrix(0.06172839506172839,0,0,0.06172839506172839,7.345679012345679,0)"
           xlink:href="#au"
           id="use1102" />
        <use
           transform="matrix(0.06172839506172839,0,0,0.06172839506172839,19.691358024691358,0)"
           xlink:href="#aE"
           id="use1104" />
      </g>
    </defs>
    <rect
       style="fill:#ffffff;stroke:#ffffff;stroke-width:1.00157;fill-opacity:1;stroke-opacity:1"
       id="rect1954"
       width="8.9329462"
       height="19.441607"
       x="680.76495"
       y="1391.304" />
  </g>
</svg>
